<svg id="Capa_1" enable-background="new 0 0 512 512" height="512" viewBox="0 0 512 512" width="512" xmlns="http://www.w3.org/2000/svg"><g><path d="m483.466 265.789c-11.1-9.866-17.466-24.042-17.466-38.893v-34.896h5c8.284 0 15-6.716 15-15s-6.716-15-15-15h-5v-35c0-8.284-6.716-15-15-15h-60c-8.284 0-15 6.716-15 15v35h-5c-8.284 0-15 6.716-15 15s6.716 15 15 15h5v34.896c0 13.709-5.435 26.834-15 36.533v-1.074c0-26.806-10.438-52.008-29.394-70.962-13.288-13.288-20.606-30.955-20.606-49.748v-51.645h5c8.284 0 15-6.716 15-15s-6.716-15-15-15h-5v-45c0-8.284-6.716-15-15-15h-80c-8.284 0-15 6.716-15 15v45h-5c-8.284 0-15 6.716-15 15s6.716 15 15 15h5v51.645c0 18.793-7.318 36.461-20.606 49.749-18.955 18.954-29.394 44.155-29.394 70.961v1.074c-9.565-9.699-15-22.825-15-36.533v-34.896h5c8.284 0 15-6.716 15-15s-6.716-15-15-15h-5v-35c0-8.284-6.716-15-15-15h-60c-8.284 0-15 6.716-15 15v35h-5c-8.284 0-15 6.716-15 15s6.716 15 15 15h5v34.896c0 14.851-6.366 29.026-17.466 38.893-17.498 15.555-27.534 37.903-27.534 61.315v139.896c0 24.813 20.187 45 45 45h90c11.517 0 22.032-4.354 30-11.495 7.968 7.142 18.483 11.495 30 11.495h120c11.517 0 22.032-4.354 30-11.495 7.968 7.141 18.483 11.495 30 11.495h90c24.813 0 45-20.187 45-45v-139.896c0-23.412-10.036-45.76-27.534-61.315zm-77.466-123.789h30v20h-30zm-27.534 146.211c17.498-15.555 27.534-37.903 27.534-61.315v-34.896h30v34.896c0 23.411 10.036 45.76 27.534 61.314 11.1 9.866 17.466 24.042 17.466 38.893v14.897h-120v-14.896c0-14.851 6.366-29.027 17.466-38.893zm-227.466 123.789h-120v-40h120zm30-80h150v70h-150zm180 40h120v40h-120zm-130-342h50v30h-50zm-29.394 182.606c18.955-18.954 29.394-44.155 29.394-70.961v-51.645h50v51.645c0 26.806 10.438 52.008 29.394 70.962 13.288 13.288 20.606 30.955 20.606 49.748v39.645h-150v-39.645c0-18.793 7.318-36.46 20.606-49.749zm-125.606-70.606h30v20h-30zm-27.534 146.211c17.498-15.555 27.534-37.903 27.534-61.315v-34.896h30v34.896c0 23.411 10.036 45.76 27.534 61.314 11.1 9.866 17.466 24.042 17.466 38.893v14.897h-120v-14.896c0-14.851 6.366-29.027 17.466-38.893zm87.534 193.789h-90c-8.271 0-15-6.729-15-15v-25h120v25c0 8.271-6.729 15-15 15zm180 0h-120c-8.271 0-15-6.729-15-15v-35h150v35c0 8.271-6.729 15-15 15zm150 0h-90c-8.271 0-15-6.729-15-15v-25h120v25c0 8.271-6.729 15-15 15z"/></g></svg>