<svg id="Capa_1" enable-background="new 0 0 512 512" height="512" viewBox="0 0 512 512" width="512" xmlns="http://www.w3.org/2000/svg"><g><path d="m15 30h36v21.766c-28.631 6.792-50 32.557-50 63.234 0 8.284 6.716 15 15 15h100c8.284 0 15-6.716 15-15 0-30.677-21.369-56.442-50-63.234v-21.766h130v21.766c-28.631 6.792-50 32.556-50 63.234 0 8.284 6.716 15 15 15h100c8.284 0 15-6.716 15-15 0-30.677-21.369-56.442-50-63.234v-21.766h256c8.284 0 15-6.716 15-15s-6.716-15-15-15h-482c-8.284 0-15 6.716-15 15s6.716 15 15 15z"/><circle cx="386" cy="117" r="55"/><path d="m206 382c2.757 0 5-2.243 5-5v-20c0-2.757-2.243-5-5-5h-80c-2.757 0-5 2.243-5 5v20c0 2.757 2.243 5 5 5z"/><path d="m138.297 412-20 100h95.406l-20-100z"/><path d="m386 382c2.757 0 5-2.243 5-5v-20c0-2.757-2.243-5-5-5h-80c-2.757 0-5 2.243-5 5v20c0 2.757 2.243 5 5 5z"/><path d="m318.297 412-20 100h95.406l-20-100z"/><path d="m497 262h-482c-8.284 0-15 6.716-15 15s6.716 15 15 15h16v205c0 8.284 6.716 15 15 15h41.703l20.927-104.634c-10.522-6.043-17.63-17.386-17.63-30.366v-20c0-19.299 15.701-35 35-35h80c19.299 0 35 15.701 35 35v20c0 12.98-7.108 24.323-17.63 30.366l20.927 104.634h23.406l20.927-104.634c-10.522-6.043-17.63-17.386-17.63-30.366v-20c0-19.299 15.701-35 35-35h80c19.299 0 35 15.701 35 35v20c0 12.98-7.108 24.323-17.63 30.366l20.927 104.634h41.703c8.284 0 15-6.716 15-15v-205h16c8.284 0 15-6.716 15-15s-6.716-15-15-15z"/><path d="m226 162h-60c-4.302 0-8.398 1.848-11.245 5.073-2.848 3.226-4.173 7.518-3.639 11.787l6.642 53.14h76.483l6.642-53.14c.534-4.27-.792-8.562-3.639-11.787-2.846-3.225-6.942-5.073-11.244-5.073z"/><path d="m106 162h-60c-4.302 0-8.398 1.848-11.245 5.073-2.848 3.226-4.173 7.518-3.639 11.787l6.642 53.14h76.483l6.642-53.14c.534-4.27-.792-8.562-3.639-11.787-2.846-3.225-6.942-5.073-11.244-5.073z"/><path d="m324.012 175.071c-16.61 14.336-28.221 34.315-31.824 56.929h187.623c-3.603-22.614-15.214-42.593-31.824-56.929-15.519 16.556-37.558 26.929-61.987 26.929s-46.468-10.373-61.988-26.929z"/></g></svg>