<svg id="Capa_1" enable-background="new 0 0 510.451 510.451" height="512" viewBox="0 0 510.451 510.451" width="512" xmlns="http://www.w3.org/2000/svg"><g><path d="m489.969 273.21-1.28-12.05-12.051-1.281c-1.233-.131-10.175-1.013-23.922-.831-4.583-38.719-21.074-78.151-48.316-115.1-23.608-32.021-46.892-50.98-47.871-51.772l-9.427-7.616-9.427 7.616c-.086.069-.353.287-.767.632-5.228-8.619-10.939-17.157-17.15-25.581-27.204-36.898-53.98-58.702-55.106-59.612l-9.426-7.615-9.426 7.616c-1.126.91-27.903 22.714-55.107 59.612-6.22 8.437-11.939 16.988-17.172 25.619-.443-.37-.723-.597-.812-.669l-9.426-7.616-9.426 7.616c-.98.792-24.264 19.751-47.872 51.772-27.241 36.948-43.733 76.381-48.315 115.099-13.708-.179-22.623.701-23.854.831l-12.05 1.281-1.281 12.05c-.476 4.48-10.892 110.531 55.987 180.035 36.579 38.015 88.573 57.206 154.81 57.206h47.893c66.229 0 118.233-19.194 154.81-57.206 66.875-69.504 56.46-175.555 55.984-180.036zm-67.219-12.211c-37.508 4.381-87.479 17.66-126.147 54.867-10.899 10.487-19.586 22.25-26.41 35.245v-73.191c.99-48.029 24.086-89.335 43.299-115.542 12.631-17.23 25.318-30.427 33.611-38.36 20.371 19.502 67.303 70.892 75.647 136.981zm-167.527-221.622c13.452 12.688 38.802 39.072 59.44 74.761-7.505 7.99-16.148 17.999-24.839 29.785-14.755 20.01-26.361 40.749-34.631 61.708-8.271-20.96-19.876-41.699-34.632-61.708-8.676-11.765-17.303-21.759-24.799-29.742 6.117-10.63 12.496-20.177 18.551-28.435 15.609-21.29 31.293-37.309 40.91-46.369zm-125.617 123.087c12.652-17.273 25.368-30.5 33.675-38.447 8.295 7.937 20.982 21.132 33.612 38.36 19.231 26.233 42.353 67.597 43.302 115.687l-.001 72.918c-6.814-12.944-15.481-24.663-26.344-35.116-38.681-37.22-88.676-50.495-126.188-54.871 5.193-40.717 25.049-75.466 41.944-98.531zm111.303 317.842c-62.371 1.833-110.328-14.186-142.687-47.721-44.755-46.382-48.864-115.234-48.486-143.451 28.224-.391 97.077 3.736 143.453 48.485 33.535 32.359 49.561 80.32 47.72 142.687zm171.319-47.721c-32.358 33.535-80.317 49.555-142.687 47.721-1.841-62.366 14.186-110.328 47.72-142.686 46.388-44.76 115.265-48.875 143.452-48.486.379 28.23-3.733 97.073-48.485 143.451z"/></g></svg>