<svg id="Capa_1" enable-background="new 0 0 512.003 512.003" height="512" viewBox="0 0 512.003 512.003" width="512" xmlns="http://www.w3.org/2000/svg"><g><path d="m257.498 215.734c0-5.522-4.477-10-10-10h-28.345-115.77l16.067-33.747c2.374-4.986.256-10.954-4.73-13.328-4.986-2.372-10.954-.256-13.328 4.73l-20.16 42.345h-35.098-28.345c-5.523 0-10 4.478-10 10s4.477 10 10 10h13.027l-14.018 31.897c-.55 1.26-.845 2.648-.845 4.023v194.426c0 1.375.295 2.763.845 4.023l14.018 31.897h-13.027c-5.523 0-10 4.478-10 10s4.477 10 10 10h28.309c.014 0 .027.003.041.003.019 0 .038-.003.057-.003h172.894c.019 0 .038.003.057.003.013 0 .027-.003.041-.003h28.31c5.523 0 10-4.478 10-10s-4.477-10-10-10h-13.036l14.001-31.901c.552-1.257.843-2.646.843-4.019v-52.327c0-5.522-4.477-10-10-10s-10 4.478-10 10v42.327h-193.354v-174.425h193.354v42.298c0 5.522 4.477 10 10 10s10-4.478 10-10v-52.298c0-1.373-.292-2.762-.843-4.019l-14.001-31.902h13.036c5.523 0 10-4.477 10-10zm-33.501 250.346-11.376 25.92h-159.959l-11.392-25.92zm-182.727-214.425 11.392-25.921h34.842c.012 0 .024.002.036.002.009 0 .019-.002.028-.002h125.054l11.376 25.921z"/><path d="m42.704 160.822c19.252 0 34.916-15.663 34.916-34.916s-15.663-34.916-34.916-34.916-34.915 15.663-34.915 34.916 15.663 34.916 34.915 34.916zm0-49.832c8.225 0 14.916 6.691 14.916 14.916s-6.691 14.916-14.916 14.916c-8.224 0-14.915-6.691-14.915-14.916s6.691-14.916 14.915-14.916z"/><path d="m88.907 79.951c19.252 0 34.916-15.676 34.916-34.944 0-19.253-15.663-34.916-34.916-34.916s-34.916 15.663-34.916 34.916c0 19.268 15.663 34.944 34.916 34.944zm0-49.86c8.225 0 14.916 6.691 14.916 14.916 0 8.24-6.691 14.944-14.916 14.944s-14.916-6.704-14.916-14.944c0-8.225 6.691-14.916 14.916-14.916z"/><path d="m91.832 359.278c0 34.393 17.927 61.334 40.812 61.334 22.869 0 40.783-26.941 40.783-61.334s-17.914-61.334-40.783-61.334c-22.885 0-40.812 26.942-40.812 61.334zm61.594 0c0 23.657-10.972 41.334-20.783 41.334-9.824 0-20.812-17.677-20.812-41.334s10.987-41.334 20.812-41.334c9.811 0 20.783 17.677 20.783 41.334z"/><path d="m472.218 167.991c-12.625-9.951-22.597-17.812-22.597-54.472v-48.771c7.482-3.7 12.642-11.411 12.642-20.308v-21.797c0-12.486-10.157-22.643-22.642-22.643h-90.506c-12.485 0-22.642 10.157-22.642 22.643v21.797c0 8.897 5.16 16.608 12.642 20.308v48.771c0 36.656-9.97 44.512-22.592 54.457-15 11.819-32 25.215-32 77.38v235.327c0 17.268 14.048 31.316 31.315 31.316h157.061c17.268 0 31.315-14.049 31.315-31.316v-235.327c0-52.146-16.999-65.544-31.996-77.365zm-125.745-145.348c0-1.433 1.21-2.643 2.642-2.643h90.506c1.432 0 2.642 1.21 2.642 2.643v21.797c0 1.433-1.21 2.643-2.642 2.643h-90.506c-1.432 0-2.642-1.21-2.642-2.643zm137.741 458.041c0 6.134-5.182 11.316-11.315 11.316h-157.061c-6.134 0-11.315-5.183-11.315-11.316v-66.108h30.614c16.244 14.783 37.115 22.875 59.232 22.875s42.988-8.092 59.232-22.875h30.614v66.108zm0-86.109h-34.615c-2.652 0-5.196 1.054-7.071 2.929-12.862 12.862-29.965 19.946-48.159 19.946s-35.297-7.084-48.159-19.946c-1.875-1.875-4.419-2.929-7.071-2.929h-34.615v-113.112h34.615c2.652 0 5.196-1.054 7.071-2.929 12.862-12.862 29.965-19.946 48.159-19.946s35.297 7.084 48.159 19.946c1.875 1.875 4.419 2.929 7.071 2.929h34.615zm0-133.112h-30.614c-16.244-14.783-37.115-22.875-59.232-22.875s-42.988 8.092-59.232 22.875h-30.614v-16.106c0-42.462 11.297-51.363 24.378-61.67 14.163-11.159 30.214-23.808 30.214-70.167v-46.437h70.506v46.437c0 46.362 16.053 59.015 30.216 70.179 13.08 10.31 24.376 19.214 24.376 61.658v16.106z"/><path d="m445.375 353.02h-102.014c-5.523 0-10 4.478-10 10s4.477 10 10 10h102.014c5.523 0 10-4.478 10-10s-4.477-10-10-10z"/><path d="m343.361 303.018c-5.523 0-10 4.478-10 10s4.477 10 10 10h102.014c5.523 0 10-4.478 10-10s-4.477-10-10-10z"/><path d="m239.306 348.839c-5.523 0-10 4.492-10 10.015s4.477 10 10 10 10-4.478 10-10v-.028c0-5.523-4.477-9.987-10-9.987z"/></g></svg>